# This file uses centimeters as units for non-parametric coordinates.

v -0.157440 -1.034758 0.203002
v -0.157440 -1.166261 -0.519297
v -0.155290 -0.552581 -1.215297
v -0.155290 -0.386011 -1.209946
v -0.066436 -0.280066 1.009552
v -0.398659 -0.280066 -0.063421
v -0.398659 -0.280066 -0.636684
v -0.155290 -0.280066 -1.043377
v -0.157440 0.457093 0.203002
v -0.157440 0.606129 -0.528064
v -0.155290 0.009983 -1.197763
v -0.155290 -0.139053 -1.209946
v -0.006730 0.606494 0.264994
v -0.006730 0.785736 -0.614239
v -0.004143 0.068768 -1.419666
v -0.004143 -0.110474 -1.434320
v -0.049676 0.457093 0.203002
v -0.049676 0.606129 -0.528064
v -0.047525 0.009983 -1.197762
v -0.047525 -0.139053 -1.209946
v 0.041327 -0.280066 1.009552
v -0.171763 -0.267329 -0.117850
v -0.208933 -0.280066 -0.636684
v -0.047525 -0.280066 -1.043377
v -0.049676 -1.034758 0.203002
v -0.049676 -1.166261 -0.519297
v -0.047525 -0.552581 -1.215297
v -0.047525 -0.386011 -1.209946
v -0.006730 -1.187713 0.264994
v -0.006730 -1.345868 -0.603695
v -0.004143 -0.607813 -1.440753
v -0.004143 -0.407484 -1.434320
v -0.004143 -0.280066 -1.233991
v 0.035386 -0.280066 1.235010
v -0.171763 -0.095411 -0.117850
v -0.158851 -0.257186 0.108858
v -0.158851 -0.098385 0.108858
v 0.058719 -0.231672 -0.142230
v 0.108663 -0.207235 -0.108858
v 0.142035 -0.190363 -0.058913
v 0.153754 -0.183963 0.000000
v 0.142035 -0.190363 0.058913
v 0.108664 -0.207235 0.108858
v 0.058719 -0.231672 0.142230
v -0.000195 -0.252035 0.153949
v -0.059108 -0.257271 0.142230
v -0.059108 -0.257271 -0.142230
v -0.000195 -0.252035 -0.153949
v 0.058719 -0.065327 -0.142230
v 0.108663 -0.038272 -0.108858
v 0.142035 -0.018536 -0.058913
v 0.153754 -0.011503 0.000000
v 0.142035 -0.018536 0.058913
v 0.108664 -0.038272 0.108858
v 0.058719 -0.065327 0.142230
v -0.000195 -0.090477 0.153949
v -0.059108 -0.098203 0.142230
v -0.059108 -0.098203 -0.142230
v -0.000195 -0.090477 -0.153949
vt 0.716212 0.481733
vt 0.716212 0.547660
vt 0.669842 0.531290
vt 0.661762 0.575670
vt 0.716212 0.582883
vt 0.699468 0.618435
vt 0.716212 0.607872
vt 0.709703 0.618106
vt 0.761506 0.531290
vt 0.770663 0.576209
vt 0.734034 0.617358
vt 0.724877 0.618106
vt 0.781699 0.581504
vt 0.737646 0.630992
vt 0.726633 0.631893
vt 0.867984 0.478247
vt 0.864372 0.491881
vt 0.856971 0.477346
vt 0.855215 0.491133
vt 0.846550 0.526356
vt 0.846550 0.501367
vt 0.829806 0.490804
vt 0.840041 0.491133
vt 0.826413 0.476951
vt 0.838722 0.477346
vt 0.650726 0.580856
vt 0.660444 0.527481
vt 0.696074 0.632288
vt 0.708383 0.631893
vt 0.846550 0.489655
vt 0.716212 0.619584
vt 0.901001 0.533030
vt 0.912037 0.527735
vt 0.770686 0.527481
vt 0.716212 0.467880
vt 0.781064 0.528383
vt 0.792100 0.533568
vt 0.790781 0.581758
vt 0.800180 0.577949
vt 0.891844 0.577949
vt 0.901024 0.581758
vt 0.857896 0.558235
vt 0.857713 0.572164
vt 0.847333 0.558235
vt 0.847956 0.572164
vt 0.846550 0.627506
vt 0.846550 0.641359
vt 0.775818 0.598663
vt 0.790095 0.598663
vt 0.777915 0.601527
vt 0.792417 0.601527
vt 0.779364 0.605814
vt 0.794111 0.605814
vt 0.779913 0.610871
vt 0.794715 0.610871
vt 0.794111 0.615927
vt 0.779364 0.615927
vt 0.792417 0.620214
vt 0.777915 0.620214
vt 0.790095 0.623078
vt 0.775818 0.623078
vt 0.659214 0.600422
vt 0.657055 0.605478
vt 0.644937 0.600422
vt 0.643189 0.605478
vt 0.656392 0.610534
vt 0.642739 0.610534
vt 0.642747 0.619095
vt 0.656376 0.619095
vt 0.680801 0.642684
vt 0.666045 0.642684
vt 0.679937 0.633015
vt 0.666285 0.633015
vt 0.679488 0.627958
vt 0.665622 0.627958
vt 0.677740 0.622902
vt 0.663463 0.622902
vt 0.787350 0.639700
vt 0.813776 0.639700
vt 0.788356 0.644756
vt 0.812771 0.644756
vt 0.788356 0.634643
vt 0.812771 0.634643
vt 0.791220 0.630357
vt 0.809906 0.630357
vt 0.795507 0.627493
vt 0.805620 0.627493
vt 0.800563 0.626487
vt 0.791220 0.653317
vt 0.810678 0.654425
vt 0.777033 0.643356
vt 0.774168 0.651917
vt 0.752618 0.643356
vt 0.754710 0.653025
vt 0.751612 0.638300
vt 0.778039 0.638300
vt 0.752618 0.633243
vt 0.777033 0.633243
vt 0.755482 0.628956
vt 0.774168 0.628956
vt 0.759769 0.626092
vt 0.769882 0.626092
vt 0.764825 0.625086
vn -0.936543 -0.196973 0.289980
vn -0.954277 -0.244098 0.172546
vn -0.954277 -0.244098 0.172546
vn -0.956431 -0.287238 0.052295
vn -0.964894 -0.262640 0.000000
vn -0.952490 -0.276252 -0.128250
vn -0.952490 -0.276252 -0.128250
vn -0.924096 -0.285226 -0.254346
vn -0.816330 0.308177 -0.488501
vn -0.952977 0.161692 -0.256302
vn -0.952977 0.161692 -0.256302
vn -1.000000 0.000000 0.000000
vn -0.935670 0.201470 0.289710
vn -0.952620 0.248159 0.175875
vn -0.952620 0.248159 0.175875
vn -0.954876 0.291019 0.059328
vn -0.964894 0.262640 0.000000
vn -0.952792 0.275095 -0.128490
vn -0.952792 0.275095 -0.128490
vn -0.924673 0.282925 -0.254821
vn -0.827733 -0.263650 -0.495325
vn -0.955964 -0.137898 -0.259071
vn -0.955964 -0.137898 -0.259071
vn -1.000000 -0.000000 0.000000
vn -0.785487 0.461006 -0.412897
vn -0.785486 0.461007 -0.412898
vn -0.785486 0.461007 -0.412898
vn -0.785485 0.461007 -0.412899
vn -0.831184 0.045300 -0.554149
vn -0.831184 0.045303 -0.554149
vn -0.831184 0.045303 -0.554149
vn -0.831183 0.045305 -0.554150
vn 0.982063 -0.015364 0.187925
vn 0.982063 -0.015364 0.187925
vn 0.982063 -0.015364 0.187925
vn 0.982063 -0.015363 0.187925
vn 0.912059 0.192671 0.361976
vn 0.977768 0.098526 0.185103
vn 0.977768 0.098526 0.185103
vn 1.000000 0.000000 0.000000
vn 0.905283 -0.226661 0.359287
vn 0.976034 -0.116113 0.184055
vn 0.976034 -0.116113 0.184055
vn 1.000000 0.000000 0.000000
vn 0.981688 -0.006114 0.190395
vn 0.981688 -0.006115 0.190395
vn 0.981688 -0.006115 0.190395
vn 0.981689 -0.006115 0.190395
vn -0.731287 -0.671039 0.122170
vn -0.731287 -0.671040 0.122170
vn -0.731287 -0.671040 0.122170
vn -0.731286 -0.671040 0.122170
vn -0.784046 -0.464368 -0.411868
vn -0.784047 -0.464367 -0.411867
vn -0.784047 -0.464367 -0.411867
vn -0.784047 -0.464366 -0.411866
vn -0.828439 0.017980 -0.559790
vn -0.828439 0.017979 -0.559791
vn -0.828439 0.017979 -0.559791
vn -0.828439 0.017977 -0.559791
vn 0.920637 -0.329429 0.209531
vn 0.920637 -0.329429 0.209531
vn 0.920637 -0.329429 0.209531
vn 0.920637 -0.329430 0.209531
vn -0.560509 0.698779 -0.444453
vn -0.560509 0.698779 -0.444453
vn -0.560509 0.698779 -0.444453
vn -0.560509 0.698778 -0.444453
vn 0.943197 0.253571 0.214666
vn 0.943197 0.253571 0.214666
vn 0.943197 0.253571 0.214666
vn 0.943197 0.253571 0.214665
vn -0.631687 -0.591674 -0.500893
vn -0.631687 -0.591674 -0.500893
vn -0.631687 -0.591674 -0.500893
vn -0.631687 -0.591674 -0.500893
vn 0.975605 -0.162411 0.147706
vn 0.975605 -0.162411 0.147707
vn 0.975605 -0.162411 0.147707
vn 0.975605 -0.162412 0.147708
vn -0.725283 0.674576 0.137520
vn -0.725283 0.674576 0.137520
vn -0.725283 0.674576 0.137520
vn -0.725283 0.674576 0.137520
vn -0.702381 -0.478492 0.526978
vn -0.779881 -0.426848 0.457806
vn -0.779881 -0.426848 0.457806
vn -0.846885 -0.369459 0.382473
vn -0.844117 0.377009 0.381222
vn -0.776565 0.435035 0.455732
vn -0.776565 0.435035 0.455732
vn -0.698543 0.487196 0.524098
vn 0.966448 0.252709 -0.046009
vn 0.966448 0.252709 -0.046009
vn 0.966448 0.252709 -0.046009
vn 0.966448 0.252710 -0.046009
vn 0.975382 0.163903 0.147532
vn 0.975382 0.163902 0.147531
vn 0.975382 0.163902 0.147531
vn 0.975383 0.163901 0.147530
vn 0.965311 -0.255842 -0.052156
vn 0.965311 -0.255842 -0.052156
vn 0.965311 -0.255842 -0.052156
vn 0.965311 -0.255842 -0.052156
vn 0.980884 -0.188354 -0.048892
vn 0.980270 -0.193681 -0.039484
vn 0.980884 -0.188354 -0.048892
vn 0.981382 -0.183004 -0.058294
vn 0.988389 -0.111903 0.102787
vn 0.985439 -0.166590 0.034017
vn 0.964806 -0.248237 0.086769
vn 0.993795 0.083700 -0.073251
vn 0.999661 -0.004201 0.025714
vn 0.988898 0.146192 -0.026616
vn 0.989322 0.138812 -0.044429
vn 0.989322 0.138812 -0.044429
vn 0.989377 0.131380 -0.062227
vn 0.964466 0.196690 0.176406
vn 0.981728 0.183227 0.051352
vn 0.952085 0.162253 -0.259245
vn 0.991937 0.044747 -0.118572
vn 0.991937 0.044747 -0.118572
vn 0.996887 -0.074334 0.026273
vn 0.951482 -0.166007 -0.259081
vn 0.991895 -0.045778 -0.118530
vn 0.991895 -0.045778 -0.118530
vn 0.996755 0.076092 0.026269
vn 0.974982 0.055346 -0.215283
vn 0.974159 -0.012329 -0.225526
vn 0.970792 0.110521 -0.212950
vn 0.958826 -0.147298 -0.242810
vn 0.970257 -0.073859 -0.230537
vn 0.320724 0.000000 -0.947173
vn 0.442972 0.000000 -0.896536
vn 0.658780 0.000000 -0.752336
vn 0.752341 0.000000 -0.658773
vn 0.896537 0.000000 -0.442969
vn 0.947172 0.000000 -0.320727
vn 1.000000 0.000000 -0.000003
vn 1.000000 0.000000 -0.000003
vn 0.947173 0.000000 0.320723
vn 0.896538 0.000000 0.442966
vn 0.752341 0.000000 0.658774
vn 0.658777 0.000000 0.752338
vn 0.442969 0.000000 0.896537
vn 0.320724 0.000000 0.947173
vn 0.066160 0.000000 0.997809
vn -0.066160 0.000000 0.997809
vn -0.256707 0.000000 0.966489
vn -0.256707 0.000000 0.966489
vn -0.317294 0.000000 0.948327
vn -0.317294 0.000000 0.948327
vn -0.211523 0.000000 -0.977373
vn -0.211523 0.000000 -0.977373
vn -0.206053 0.000000 -0.978541
vn -0.200576 0.000000 -0.979678
vn -0.066161 0.000000 -0.997809
vn 0.066158 0.000000 -0.997809
vn -0.307636 0.951504 0.000000
vn -0.219377 0.975640 0.000000
vn -0.087457 0.996168 0.000000
vn -0.034940 0.999382 0.003862
vn -0.448839 0.893613 0.000000
vn -0.420920 0.907098 -0.000000
vn -0.498210 0.867056 0.000002
vn -0.487294 0.873238 0.000001
vn -0.511796 0.859107 0.000002
vn -0.510881 0.859651 0.000002
vn -0.514537 0.857468 0.000002
vn 0.012733 0.999902 0.005780
vn 0.027279 0.999561 0.011558
vn 0.043884 -0.999037 -0.000000
vn 0.048251 -0.998645 0.019506
vn 0.068424 -0.997609 0.009749
vn 0.097221 -0.994500 0.038958
vn 0.248948 -0.968517 -0.000000
vn 0.169036 -0.985610 -0.000000
vn 0.402552 -0.915397 -0.000000
vn 0.364889 -0.931051 0.000000
vn 0.447309 -0.894380 -0.000002
vn 0.443400 -0.896324 -0.000001
vn 0.465316 -0.885144 -0.000002
vn 0.460625 -0.887595 -0.000002
vn 0.479310 -0.877646 -0.000002
f 5/1/1 6/2/2 1/3/3
f 1/3/3 6/2/2 2/4/4
f 6/2/5 7/5/6 2/4/7
f 2/4/7 7/5/6 3/6/8
f 7/5/9 8/7/10 3/6/11
f 3/6/11 8/7/10 4/8/12
f 5/1/13 9/9/14 6/2/15
f 6/2/15 9/9/14 10/10/16
f 6/2/17 10/10/18 7/5/19
f 7/5/19 10/10/18 11/11/20
f 7/5/21 11/11/22 8/7/23
f 8/7/23 11/11/22 12/12/24
f 10/10/25 14/13/26 11/11/27
f 11/11/27 14/13/26 15/14/28
f 12/12/29 11/11/30 16/15/31
f 16/15/31 11/11/30 15/14/32
f 15/16/33 19/17/34 16/18/35
f 16/18/35 19/17/34 20/19/36
f 23/20/37 24/21/38 19/17/39
f 19/17/39 24/21/38 20/19/40
f 23/20/41 27/22/42 24/21/43
f 24/21/43 27/22/42 28/23/44
f 31/24/45 32/25/46 27/22/47
f 27/22/47 32/25/46 28/23/48
f 30/26/49 29/27/50 2/4/51
f 2/4/51 29/27/50 1/3/52
f 31/28/53 30/26/54 3/6/55
f 3/6/55 30/26/54 2/4/56
f 4/8/57 32/29/58 3/6/59
f 3/6/59 32/29/58 31/28/60
f 32/25/61 33/30/62 28/23/63
f 28/23/63 33/30/62 24/21/64
f 8/7/65 33/31/66 4/8/67
f 4/8/67 33/31/66 32/29/68
f 16/18/69 20/19/70 33/30/71
f 33/30/71 20/19/70 24/21/72
f 16/15/73 33/31/74 12/12/75
f 12/12/75 33/31/74 8/7/76
f 18/32/77 19/17/78 14/33/79
f 14/33/79 19/17/78 15/16/80
f 9/9/81 13/34/82 10/10/83
f 10/10/83 13/34/82 14/13/84
f 1/3/85 29/27/86 5/1/87
f 5/1/87 29/27/86 34/35/88
f 34/35/89 13/34/90 5/1/91
f 5/1/91 13/34/90 9/9/92
f 30/36/93 26/37/94 29/38/95
f 29/38/95 26/37/94 25/39/96
f 31/24/97 27/22/98 30/36/99
f 30/36/99 27/22/98 26/37/100
f 17/40/101 18/32/102 13/41/103
f 13/41/103 18/32/102 14/33/104
f 35/42/105 18/32/106 17/40/107
f 37/43/108 35/42/105 17/40/107
f 18/32/109 35/42/110 19/17/111
f 22/44/112 23/20/113 35/42/110
f 35/42/110 23/20/113 19/17/111
f 26/37/114 22/44/115 25/39/116
f 25/39/116 22/44/115 36/45/117
f 27/22/118 23/20/113 26/37/119
f 26/37/119 23/20/113 22/44/112
f 25/39/120 21/46/121 29/38/122
f 29/38/122 21/46/121 34/47/123
f 17/40/124 13/41/125 21/46/126
f 21/46/126 13/41/125 34/47/127
f 36/45/128 21/46/129 25/39/130
f 17/40/131 21/46/129 37/43/132
f 37/43/132 21/46/129 36/45/128
f 38/48/133 49/49/134 39/50/135
f 39/50/135 49/49/134 50/51/136
f 39/50/135 50/51/136 40/52/137
f 40/52/137 50/51/136 51/53/138
f 40/52/137 51/53/138 41/54/139
f 41/54/139 51/53/138 52/55/140
f 52/55/140 53/56/141 41/54/139
f 41/54/139 53/56/141 42/57/142
f 53/56/141 54/58/143 42/57/142
f 42/57/142 54/58/143 43/59/144
f 54/58/143 55/60/145 43/59/144
f 43/59/144 55/60/145 44/61/146
f 55/62/145 56/63/147 44/64/146
f 44/64/146 56/63/147 45/65/148
f 56/63/147 57/66/149 45/65/148
f 45/65/148 57/66/149 46/67/150
f 46/67/150 57/66/149 36/68/151
f 36/68/151 57/66/149 37/69/152
f 22/70/153 35/71/154 47/72/155
f 47/72/155 35/71/154 58/73/156
f 47/72/155 58/73/156 48/74/157
f 48/74/157 58/73/156 59/75/158
f 48/74/157 59/75/158 38/76/133
f 38/76/133 59/75/158 49/77/134
f 56/78/159 59/79/160 57/80/161
f 57/80/161 59/79/160 58/81/162
f 55/82/163 49/83/164 56/78/159
f 56/78/159 49/83/164 59/79/160
f 54/84/165 50/85/166 55/82/163
f 55/82/163 50/85/166 49/83/164
f 53/86/167 51/87/168 54/84/165
f 54/84/165 51/87/168 50/85/166
f 52/88/169 51/87/168 53/86/167
f 57/80/161 58/81/162 37/89/170
f 37/89/170 58/81/162 35/90/171
f 46/91/172 36/92/173 47/93/174
f 47/93/174 36/92/173 22/94/175
f 48/95/176 45/96/177 47/93/174
f 47/93/174 45/96/177 46/91/172
f 38/97/178 44/98/179 48/95/176
f 48/95/176 44/98/179 45/96/177
f 39/99/180 43/100/181 38/97/178
f 38/97/178 43/100/181 44/98/179
f 40/101/182 42/102/183 39/99/180
f 39/99/180 42/102/183 43/100/181
f 41/103/184 42/102/183 40/101/182
