# This file uses centimeters as units for non-parametric coordinates.

v 0.157440 -1.034758 0.203002
v 0.157440 -1.166261 -0.519297
v 0.155290 -0.552582 -1.215297
v 0.155290 -0.386011 -1.209947
v 0.066437 -0.280066 1.009552
v 0.398659 -0.280066 -0.063420
v 0.398659 -0.280066 -0.636683
v 0.155290 -0.280066 -1.043377
v 0.157440 0.457093 0.203002
v 0.157440 0.606129 -0.528064
v 0.155290 0.009983 -1.197763
v 0.155290 -0.139053 -1.209947
v 0.006729 0.606494 0.264995
v 0.006730 0.785736 -0.614240
v 0.004144 0.068768 -1.419666
v 0.004143 -0.110474 -1.434320
v 0.049676 0.457093 0.203002
v 0.049675 0.606129 -0.528064
v 0.047525 0.009983 -1.197762
v 0.047525 -0.139053 -1.209946
v -0.041327 -0.280066 1.009552
v 0.171762 -0.267329 -0.117849
v 0.208932 -0.280066 -0.636683
v 0.047524 -0.280066 -1.043377
v 0.049676 -1.034758 0.203002
v 0.049676 -1.166261 -0.519297
v 0.047525 -0.552582 -1.215296
v 0.047525 -0.386011 -1.209946
v 0.006729 -1.187713 0.264995
v 0.006730 -1.345868 -0.603696
v 0.004143 -0.607813 -1.440753
v 0.004143 -0.407484 -1.434320
v 0.004144 -0.280066 -1.233991
v -0.035386 -0.280066 1.235010
v 0.171762 -0.095411 -0.117849
v 0.158852 -0.257186 0.108857
v 0.158852 -0.098385 0.108857
v -0.058720 -0.231672 -0.142231
v -0.108664 -0.207235 -0.108859
v -0.142035 -0.190363 -0.058914
v -0.153754 -0.183963 0.000000
v -0.142035 -0.190363 0.058913
v -0.108664 -0.207235 0.108857
v -0.058720 -0.231672 0.142230
v 0.000195 -0.252035 0.153949
v 0.059108 -0.257272 0.142231
v 0.059108 -0.257272 -0.142231
v 0.000195 -0.252035 -0.153949
v -0.058720 -0.065327 -0.142231
v -0.108664 -0.038272 -0.108859
v -0.142035 -0.018536 -0.058914
v -0.153754 -0.011503 0.000000
v -0.142035 -0.018536 0.058913
v -0.108664 -0.038272 0.108857
v -0.058720 -0.065327 0.142230
v 0.000195 -0.090477 0.153949
v 0.059108 -0.098203 0.142231
v 0.059108 -0.098203 -0.142231
v 0.000195 -0.090477 -0.153949
vt 0.529845 0.537640
vt 0.584296 0.565650
vt 0.537925 0.582020
vt 0.584296 0.631577
vt 0.567552 0.494875
vt 0.584296 0.530427
vt 0.577787 0.495204
vt 0.584296 0.505438
vt 0.629590 0.582020
vt 0.638747 0.537101
vt 0.602118 0.495952
vt 0.592960 0.495204
vt 0.605730 0.482318
vt 0.649783 0.531806
vt 0.594717 0.481417
vt 0.474916 0.636418
vt 0.463903 0.637318
vt 0.471304 0.622783
vt 0.462147 0.623532
vt 0.453483 0.613297
vt 0.453483 0.588308
vt 0.436738 0.623860
vt 0.446973 0.623532
vt 0.445654 0.637318
vt 0.433345 0.637713
vt 0.518810 0.532454
vt 0.528527 0.585829
vt 0.564158 0.481022
vt 0.576467 0.481417
vt 0.453483 0.625009
vt 0.584296 0.493726
vt 0.518969 0.586929
vt 0.507933 0.581634
vt 0.638770 0.585829
vt 0.584296 0.645430
vt 0.407112 0.536715
vt 0.399032 0.581096
vt 0.397714 0.532906
vt 0.387996 0.586282
vt 0.507956 0.532906
vt 0.498776 0.536715
vt 0.464828 0.556430
vt 0.464646 0.542500
vt 0.454265 0.556430
vt 0.454888 0.542500
vt 0.453483 0.473305
vt 0.453483 0.487158
vt 0.515510 0.621317
vt 0.517586 0.618481
vt 0.529645 0.621317
vt 0.531944 0.618481
vt 0.519020 0.614237
vt 0.533621 0.614237
vt 0.519564 0.609231
vt 0.534218 0.609231
vt 0.519020 0.604225
vt 0.533621 0.604225
vt 0.517586 0.599981
vt 0.531944 0.599981
vt 0.515510 0.597145
vt 0.529645 0.597145
vt 0.608886 0.640770
vt 0.622614 0.640770
vt 0.610616 0.645776
vt 0.624751 0.645776
vt 0.608441 0.635763
vt 0.621957 0.635763
vt 0.608448 0.627288
vt 0.621942 0.627288
vt 0.644160 0.627288
vt 0.643305 0.636860
vt 0.629551 0.627288
vt 0.629789 0.636860
vt 0.642860 0.641867
vt 0.629132 0.641867
vt 0.641130 0.646873
vt 0.626995 0.646873
vt 0.532249 0.636912
vt 0.533244 0.631905
vt 0.558412 0.636912
vt 0.557416 0.631905
vt 0.533244 0.641918
vt 0.557416 0.641918
vt 0.536080 0.646161
vt 0.554580 0.646161
vt 0.540324 0.648997
vt 0.550336 0.648997
vt 0.545330 0.649993
vt 0.536080 0.623430
vt 0.555344 0.622333
vt 0.494935 0.622746
vt 0.514199 0.623843
vt 0.492863 0.632318
vt 0.517035 0.632318
vt 0.491867 0.637324
vt 0.518030 0.637324
vt 0.492863 0.642331
vt 0.517035 0.642331
vt 0.495699 0.646574
vt 0.514199 0.646574
vt 0.499943 0.649410
vt 0.509955 0.649410
vt 0.504949 0.650406
vn 0.956431 -0.287238 0.052295
vn 0.954277 -0.244098 0.172546
vn 0.954277 -0.244098 0.172546
vn 0.936543 -0.196974 0.289980
vn 0.924096 -0.285226 -0.254346
vn 0.952490 -0.276252 -0.128249
vn 0.952490 -0.276252 -0.128249
vn 0.964894 -0.262640 0.000000
vn 1.000000 0.000000 0.000000
vn 0.952977 0.161691 -0.256302
vn 0.952977 0.161691 -0.256302
vn 0.816331 0.308176 -0.488500
vn 0.935670 0.201471 0.289709
vn 0.952620 0.248159 0.175875
vn 0.952620 0.248159 0.175875
vn 0.954876 0.291019 0.059328
vn 0.964894 0.262640 0.000000
vn 0.952792 0.275095 -0.128490
vn 0.952792 0.275095 -0.128490
vn 0.924673 0.282925 -0.254821
vn 0.827734 -0.263649 -0.495324
vn 0.955964 -0.137897 -0.259070
vn 0.955964 -0.137897 -0.259070
vn 1.000000 -0.000000 0.000000
vn 0.785487 0.461006 -0.412897
vn 0.785488 0.461005 -0.412896
vn 0.785488 0.461005 -0.412896
vn 0.785489 0.461005 -0.412895
vn 0.831184 0.045301 -0.554149
vn 0.831184 0.045300 -0.554149
vn 0.831184 0.045300 -0.554149
vn 0.831184 0.045300 -0.554149
vn -0.982064 -0.015359 0.187923
vn -0.982064 -0.015361 0.187924
vn -0.982064 -0.015361 0.187924
vn -0.982063 -0.015363 0.187925
vn -1.000000 0.000000 -0.000005
vn -0.977768 0.098527 0.185100
vn -0.977768 0.098527 0.185100
vn -0.912059 0.192673 0.361975
vn -0.905283 -0.226663 0.359287
vn -0.976034 -0.116114 0.184052
vn -0.976034 -0.116114 0.184052
vn -1.000000 0.000000 -0.000006
vn -0.981689 -0.006115 0.190394
vn -0.981689 -0.006115 0.190395
vn -0.981689 -0.006115 0.190395
vn -0.981689 -0.006114 0.190395
vn 0.731287 -0.671039 0.122171
vn 0.731286 -0.671040 0.122171
vn 0.731286 -0.671040 0.122171
vn 0.731285 -0.671041 0.122171
vn 0.784046 -0.464367 -0.411868
vn 0.784047 -0.464366 -0.411866
vn 0.784047 -0.464366 -0.411866
vn 0.784049 -0.464365 -0.411864
vn 0.828439 0.017980 -0.559791
vn 0.828439 0.017979 -0.559791
vn 0.828439 0.017979 -0.559791
vn 0.828439 0.017977 -0.559791
vn -0.920640 -0.329422 0.209531
vn -0.920640 -0.329423 0.209527
vn -0.920640 -0.329423 0.209527
vn -0.920641 -0.329424 0.209523
vn 0.560510 0.698778 -0.444452
vn 0.560510 0.698777 -0.444453
vn 0.560510 0.698777 -0.444453
vn 0.560510 0.698777 -0.444454
vn -0.943200 0.253567 0.214657
vn -0.943199 0.253566 0.214661
vn -0.943199 0.253566 0.214661
vn -0.943199 0.253565 0.214665
vn 0.631688 -0.591672 -0.500894
vn 0.631688 -0.591673 -0.500893
vn 0.631688 -0.591673 -0.500893
vn 0.631688 -0.591673 -0.500892
vn -0.975606 -0.162409 0.147705
vn -0.975606 -0.162407 0.147703
vn -0.975606 -0.162407 0.147703
vn -0.975607 -0.162406 0.147700
vn 0.725284 0.674575 0.137521
vn 0.725283 0.674576 0.137521
vn 0.725283 0.674576 0.137521
vn 0.725282 0.674577 0.137520
vn 0.846884 -0.369461 0.382475
vn 0.779880 -0.426849 0.457807
vn 0.779880 -0.426849 0.457807
vn 0.702380 -0.478493 0.526978
vn 0.698542 0.487197 0.524098
vn 0.776563 0.435037 0.455733
vn 0.776563 0.435037 0.455733
vn 0.844116 0.377011 0.381224
vn -0.966447 0.252712 -0.046009
vn -0.966448 0.252710 -0.046009
vn -0.966448 0.252710 -0.046009
vn -0.966448 0.252707 -0.046009
vn -0.975383 0.163899 0.147528
vn -0.975383 0.163901 0.147530
vn -0.975383 0.163901 0.147530
vn -0.975382 0.163902 0.147532
vn -0.965312 -0.255835 -0.052156
vn -0.965311 -0.255840 -0.052156
vn -0.965311 -0.255840 -0.052156
vn -0.965310 -0.255846 -0.052156
vn -0.980884 -0.188354 -0.048889
vn -0.980884 -0.188354 -0.048889
vn -0.980270 -0.193681 -0.039483
vn -0.981382 -0.183005 -0.058290
vn -0.988389 -0.111904 0.102787
vn -0.964806 -0.248236 0.086768
vn -0.985440 -0.166589 0.034017
vn -0.993795 0.083699 -0.073251
vn -0.999661 -0.004201 0.025714
vn -0.989377 0.131381 -0.062223
vn -0.989322 0.138812 -0.044427
vn -0.989322 0.138812 -0.044427
vn -0.988898 0.146191 -0.026616
vn -0.981729 0.183226 0.051352
vn -0.964466 0.196689 0.176405
vn -0.996887 -0.074333 0.026273
vn -0.991937 0.044748 -0.118573
vn -0.991937 0.044748 -0.118573
vn -0.952084 0.162255 -0.259247
vn -0.996755 0.076091 0.026269
vn -0.991894 -0.045779 -0.118531
vn -0.991894 -0.045779 -0.118531
vn -0.951482 -0.166009 -0.259083
vn -0.974982 0.055346 -0.215283
vn -0.970792 0.110522 -0.212951
vn -0.974159 -0.012329 -0.225526
vn -0.958826 -0.147299 -0.242810
vn -0.970256 -0.073859 -0.230537
vn -0.320724 0.000000 -0.947173
vn -0.658780 0.000000 -0.752336
vn -0.442972 0.000000 -0.896536
vn -0.752341 0.000000 -0.658773
vn -0.896538 0.000000 -0.442967
vn -0.947173 0.000000 -0.320722
vn -1.000000 0.000000 0.000001
vn -1.000000 0.000000 0.000001
vn -0.896535 0.000000 0.442973
vn -0.947172 0.000000 0.320726
vn -0.658785 0.000000 0.752332
vn -0.752340 0.000000 0.658775
vn -0.320733 0.000000 0.947170
vn -0.442982 0.000000 0.896531
vn 0.066158 0.000000 0.997809
vn -0.066163 0.000000 0.997809
vn 0.256710 0.000000 0.966488
vn 0.256710 0.000000 0.966488
vn 0.317301 0.000000 0.948325
vn 0.317301 0.000000 0.948325
vn 0.211527 0.000000 -0.977372
vn 0.206055 0.000000 -0.978540
vn 0.211527 0.000000 -0.977372
vn 0.200577 0.000000 -0.979678
vn 0.066161 0.000000 -0.997809
vn -0.066158 0.000000 -0.997809
vn 0.307634 0.951505 0.000000
vn 0.087457 0.996168 0.000000
vn 0.219377 0.975640 0.000000
vn 0.034940 0.999382 0.003862
vn 0.448841 0.893611 0.000000
vn 0.420918 0.907099 0.000000
vn 0.498212 0.867055 0.000000
vn 0.487297 0.873237 0.000000
vn 0.511798 0.859106 0.000000
vn 0.510882 0.859651 0.000000
vn 0.514544 0.857464 0.000000
vn -0.012733 0.999902 0.005780
vn -0.027280 0.999561 0.011558
vn -0.097221 -0.994500 0.038958
vn -0.048251 -0.998645 0.019506
vn -0.068424 -0.997609 0.009749
vn -0.043884 -0.999037 0.000000
vn -0.248946 -0.968517 0.000000
vn -0.169035 -0.985610 0.000000
vn -0.402555 -0.915396 0.000000
vn -0.364891 -0.931050 0.000000
vn -0.447307 -0.894381 0.000000
vn -0.443402 -0.896323 0.000000
vn -0.465319 -0.885143 0.000000
vn -0.460626 -0.887594 0.000000
vn -0.479317 -0.877642 0.000000
f 2/1/1 6/2/2 1/3/3
f 1/3/3 6/2/2 5/4/4
f 3/5/5 7/6/6 2/1/7
f 2/1/7 7/6/6 6/2/8
f 4/7/9 8/8/10 3/5/11
f 3/5/11 8/8/10 7/6/12
f 5/4/13 6/2/14 9/9/15
f 9/9/15 6/2/14 10/10/16
f 6/2/17 7/6/18 10/10/19
f 10/10/19 7/6/18 11/11/20
f 7/6/21 8/8/22 11/11/23
f 11/11/23 8/8/22 12/12/24
f 15/13/25 14/14/26 11/11/27
f 11/11/27 14/14/26 10/10/28
f 15/13/29 11/11/30 16/15/31
f 16/15/31 11/11/30 12/12/32
f 15/16/33 16/17/34 19/18/35
f 19/18/35 16/17/34 20/19/36
f 20/19/37 24/20/38 19/18/39
f 19/18/39 24/20/38 23/21/40
f 23/21/41 24/20/42 27/22/43
f 27/22/43 24/20/42 28/23/44
f 28/23/45 32/24/46 27/22/47
f 27/22/47 32/24/46 31/25/48
f 30/26/49 2/1/50 29/27/51
f 29/27/51 2/1/50 1/3/52
f 31/28/53 3/5/54 30/26/55
f 30/26/55 3/5/54 2/1/56
f 4/7/57 3/5/58 32/29/59
f 32/29/59 3/5/58 31/28/60
f 32/24/61 28/23/62 33/30/63
f 33/30/63 28/23/62 24/20/64
f 8/8/65 4/7/66 33/31/67
f 33/31/67 4/7/66 32/29/68
f 24/20/69 20/19/70 33/30/71
f 33/30/71 20/19/70 16/17/72
f 16/15/73 12/12/74 33/31/75
f 33/31/75 12/12/74 8/8/76
f 15/16/77 19/18/78 14/32/79
f 14/32/79 19/18/78 18/33/80
f 14/14/81 13/34/82 10/10/83
f 10/10/83 13/34/82 9/9/84
f 34/35/85 29/27/86 5/4/87
f 5/4/87 29/27/86 1/3/88
f 9/9/89 13/34/90 5/4/91
f 5/4/91 13/34/90 34/35/92
f 25/36/93 26/37/94 29/38/95
f 29/38/95 26/37/94 30/39/96
f 26/37/97 27/22/98 30/39/99
f 30/39/99 27/22/98 31/25/100
f 14/32/101 18/33/102 13/40/103
f 13/40/103 18/33/102 17/41/104
f 35/42/105 17/41/106 18/33/107
f 37/43/108 17/41/106 35/42/105
f 18/33/109 19/18/110 35/42/111
f 22/44/112 35/42/111 23/21/113
f 19/18/110 23/21/113 35/42/111
f 36/45/114 22/44/115 25/36/116
f 25/36/116 22/44/115 26/37/117
f 22/44/112 23/21/113 26/37/118
f 26/37/118 23/21/113 27/22/119
f 34/46/120 21/47/121 29/38/122
f 29/38/122 21/47/121 25/36/123
f 34/46/124 13/40/125 21/47/126
f 21/47/126 13/40/125 17/41/127
f 36/45/128 25/36/129 21/47/130
f 17/41/131 37/43/132 21/47/130
f 37/43/132 36/45/128 21/47/130
f 38/48/133 39/49/134 49/50/135
f 49/50/135 39/49/134 50/51/136
f 39/49/134 40/52/137 50/51/136
f 50/51/136 40/52/137 51/53/138
f 40/52/137 41/54/139 51/53/138
f 51/53/138 41/54/139 52/55/140
f 42/56/141 53/57/142 41/54/139
f 41/54/139 53/57/142 52/55/140
f 43/58/143 54/59/144 42/56/141
f 42/56/141 54/59/144 53/57/142
f 44/60/145 55/61/146 43/58/143
f 43/58/143 55/61/146 54/59/144
f 45/62/147 56/63/148 44/64/145
f 44/64/145 56/63/148 55/65/146
f 46/66/149 57/67/150 45/62/147
f 45/62/147 57/67/150 56/63/148
f 46/66/149 36/68/151 57/67/150
f 57/67/150 36/68/151 37/69/152
f 22/70/153 47/71/154 35/72/155
f 35/72/155 47/71/154 58/73/156
f 47/71/154 48/74/157 58/73/156
f 58/73/156 48/74/157 59/75/158
f 48/74/157 38/76/133 59/75/158
f 59/75/158 38/76/133 49/77/135
f 56/78/159 57/79/160 59/80/161
f 59/80/161 57/79/160 58/81/162
f 55/82/163 56/78/159 49/83/164
f 49/83/164 56/78/159 59/80/161
f 54/84/165 55/82/163 50/85/166
f 50/85/166 55/82/163 49/83/164
f 53/86/167 54/84/165 51/87/168
f 51/87/168 54/84/165 50/85/166
f 52/88/169 53/86/167 51/87/168
f 57/79/160 37/89/170 58/81/162
f 58/81/162 37/89/170 35/90/171
f 22/91/172 36/92/173 47/93/174
f 47/93/174 36/92/173 46/94/175
f 48/95/176 47/93/174 45/96/177
f 45/96/177 47/93/174 46/94/175
f 38/97/178 48/95/176 44/98/179
f 44/98/179 48/95/176 45/96/177
f 39/99/180 38/97/178 43/100/181
f 43/100/181 38/97/178 44/98/179
f 40/101/182 39/99/180 42/102/183
f 42/102/183 39/99/180 43/100/181
f 41/103/184 40/101/182 42/102/183
